<svg width="28" height="31" fill="none" xmlns="http://www.w3.org/2000/svg"><g filter="url(#filter0_d)" fill-rule="evenodd" clip-rule="evenodd" fill="#fff"><path d="M7 4.75c-.69 0-1.25.56-1.25 1.25v14c0 .69.56 1.25 1.25 1.25h14c.69 0 1.25-.56 1.25-1.25V6c0-.69-.56-1.25-1.25-1.25H7zM4.25 6A2.75 2.75 0 017 3.25h14A2.75 2.75 0 0123.75 6v14A2.75 2.75 0 0121 22.75H7A2.75 2.75 0 014.25 20V6z"/><path d="M18 1.25a.75.75 0 01.75.75v4a.75.75 0 01-1.5 0V2a.75.75 0 01.75-.75zm-8 0a.75.75 0 01.75.75v4a.75.75 0 01-1.5 0V2a.75.75 0 01.75-.75zM4.25 10A.75.75 0 015 9.25h18a.75.75 0 010 1.5H5a.75.75 0 01-.75-.75z"/></g><defs><filter id="filter0_d" x="-2" y="0" width="32" height="32" filterUnits="userSpaceOnUse" color-interpolation-filters="sRGB"><feFlood flood-opacity="0" result="BackgroundImageFix"/><feColorMatrix in="SourceAlpha" values="0 0 0 0 0 0 0 0 0 0 0 0 0 0 0 0 0 0 127 0"/><feOffset dy="4"/><feGaussianBlur stdDeviation="2"/><feColorMatrix values="0 0 0 0 0 0 0 0 0 0 0 0 0 0 0 0 0 0 0.25 0"/><feBlend in2="BackgroundImageFix" result="effect1_dropShadow"/><feBlend in="SourceGraphic" in2="effect1_dropShadow" result="shape"/></filter></defs></svg>