<svg width="20" height="21" fill="none" xmlns="http://www.w3.org/2000/svg"><path d="M11.107 0C6.03 1.728 1.747 5.25 0 10.5c1.726 5.19 5.97 8.752 11.107 10.5 4.569-3.554 7.06-6.409 8.893-10.5-2.63-1.782-3.736-2.7-5.869-5.458-2.857 1.34-5.345 2.9-7.548 5.401.79 1.137 2.104 2.197 3.165 3.07 1.547-1.148 2.727-2.266 3.49-3.225.48.591 1.02.984 1.535 1.313-1.33 2.281-2.821 3.534-4.663 4.73-2.767-1.477-4.99-4.035-6.072-6.198 2.026-3.371 5.204-5.647 8.815-6.915C12.268 2.184 11.5 1.22 11.107 0z" fill="#FFD001"/></svg>