<svg width="40" height="40" fill="none" xmlns="http://www.w3.org/2000/svg"><path fill-rule="evenodd" clip-rule="evenodd" d="M15.603 9.398c1.138-.052 1.501-.064 4.398-.064h-.003c2.897 0 3.26.012 4.397.064 1.136.052 1.912.232 2.592.495a5.213 5.213 0 011.889 1.23 5.234 5.234 0 011.23 1.89c.263.678.443 1.453.496 2.589.051 1.138.065 1.501.065 4.398s-.014 3.26-.065 4.398c-.053 1.135-.233 1.91-.495 2.589a5.235 5.235 0 01-1.232 1.889 5.218 5.218 0 01-1.888 1.231c-.678.264-1.454.444-2.59.496-1.138.051-1.5.064-4.397.064-2.897 0-3.26-.013-4.398-.064-1.136-.052-1.91-.232-2.59-.496a5.22 5.22 0 01-1.888-1.231 5.226 5.226 0 01-1.23-1.89c-.264-.678-.444-1.453-.496-2.589-.052-1.137-.065-1.5-.065-4.397 0-2.897.014-3.26.065-4.398.05-1.135.23-1.91.495-2.59a5.236 5.236 0 011.231-1.889 5.223 5.223 0 011.89-1.23c.678-.263 1.453-.443 2.589-.495zm4.042 1.858h-.6v-.003c-1.989.002-2.37.016-3.354.06-1.04.048-1.605.221-1.98.368a3.31 3.31 0 00-1.228.798 3.305 3.305 0 00-.798 1.227c-.146.376-.32.94-.367 1.98-.051 1.125-.061 1.46-.061 4.31 0 2.848.01 3.185.06 4.31.048 1.04.222 1.604.368 1.98.194.498.425.853.798 1.226.374.373.73.604 1.227.798.376.146.94.32 1.98.367 1.125.052 1.463.063 4.311.063s3.186-.011 4.31-.063c1.04-.047 1.605-.22 1.98-.367a3.297 3.297 0 001.226-.798c.374-.373.605-.727.799-1.225.146-.376.32-.94.367-1.98.051-1.125.062-1.462.062-4.31 0-2.846-.01-3.184-.062-4.308-.047-1.04-.221-1.604-.367-1.98a3.31 3.31 0 00-.799-1.227 3.3 3.3 0 00-1.225-.798c-.376-.146-.94-.32-1.98-.367-1.125-.051-1.463-.061-4.311-.061h-.356zM14.523 20a5.478 5.478 0 1110.954 0 5.478 5.478 0 01-10.954 0zm9.034 0a3.556 3.556 0 10-7.112 0 3.556 3.556 0 007.112 0zm.858-5.694a1.28 1.28 0 112.56 0 1.28 1.28 0 01-2.56 0z" fill="#fff"/></svg>