<svg width="28" height="32" fill="none" xmlns="http://www.w3.org/2000/svg"><g filter="url(#filter0_d)" fill-rule="evenodd" clip-rule="evenodd" fill="#fff"><path d="M14 1.75A8.25 8.25 0 005.75 10c0 3.198 2.074 6.266 4.294 8.61A29.672 29.672 0 0014 22.082a29.672 29.672 0 003.956-3.473c2.22-2.344 4.294-5.412 4.294-8.61A8.25 8.25 0 0014 1.75zM14 23l-.416.624-.003-.002-.006-.004-.022-.015a11.758 11.758 0 01-.379-.267 31.17 31.17 0 01-4.219-3.696C6.676 17.235 4.25 13.803 4.25 10a9.75 9.75 0 0119.5 0c0 3.802-2.426 7.234-4.706 9.64a31.173 31.173 0 01-4.218 3.697 18.242 18.242 0 01-.379.266l-.022.015-.006.004-.002.001s-.001.001-.417-.623zm0 0l.416.624a.75.75 0 01-.832 0L14 23z"/><path d="M14 7.75a2.25 2.25 0 100 4.5 2.25 2.25 0 000-4.5zM10.25 10a3.75 3.75 0 117.5 0 3.75 3.75 0 01-7.5 0z"/></g><defs><filter id="filter0_d" x="-2" y="0" width="32" height="32" filterUnits="userSpaceOnUse" color-interpolation-filters="sRGB"><feFlood flood-opacity="0" result="BackgroundImageFix"/><feColorMatrix in="SourceAlpha" values="0 0 0 0 0 0 0 0 0 0 0 0 0 0 0 0 0 0 127 0"/><feOffset dy="4"/><feGaussianBlur stdDeviation="2"/><feColorMatrix values="0 0 0 0 0 0 0 0 0 0 0 0 0 0 0 0 0 0 0.25 0"/><feBlend in2="BackgroundImageFix" result="effect1_dropShadow"/><feBlend in="SourceGraphic" in2="effect1_dropShadow" result="shape"/></filter></defs></svg>